<mxfile host="65bd71144e" scale="1" border="20">
    <diagram id="CX3G9Xh7dB3GCvSDx5av" name="第 1 页">
        <mxGraphModel dx="3297" dy="2083" grid="0" gridSize="10" guides="1" tooltips="1" connect="1" arrows="1" fold="1" page="1" pageScale="1" pageWidth="1169" pageHeight="827" background="#ffffff" math="0" shadow="0">
            <root>
                <mxCell id="0"/>
                <mxCell id="1" parent="0"/>
                <mxCell id="21" value="个人登录注册" style="rounded=0;whiteSpace=wrap;html=1;" vertex="1" parent="1">
                    <mxGeometry y="-313" width="120" height="60" as="geometry"/>
                </mxCell>
                <mxCell id="123" style="edgeStyle=none;html=1;exitX=1;exitY=0.5;exitDx=0;exitDy=0;entryX=0;entryY=0.5;entryDx=0;entryDy=0;strokeColor=#000000;" edge="1" parent="1" source="25" target="48">
                    <mxGeometry relative="1" as="geometry"/>
                </mxCell>
                <mxCell id="25" value="个人信息管理" style="rounded=0;whiteSpace=wrap;html=1;" vertex="1" parent="1">
                    <mxGeometry y="496" width="120" height="60" as="geometry"/>
                </mxCell>
                <mxCell id="134" style="edgeStyle=none;html=1;exitX=1;exitY=0.5;exitDx=0;exitDy=0;entryX=0;entryY=0.5;entryDx=0;entryDy=0;strokeColor=#000000;" edge="1" parent="1" source="27" target="74">
                    <mxGeometry relative="1" as="geometry"/>
                </mxCell>
                <mxCell id="27" value="在线考试系统" style="rounded=0;whiteSpace=wrap;html=1;" vertex="1" parent="1">
                    <mxGeometry x="-239" y="312" width="120" height="60" as="geometry"/>
                </mxCell>
                <mxCell id="48" value="信息修改" style="whiteSpace=wrap;html=1;rounded=0;" vertex="1" parent="1">
                    <mxGeometry x="226" y="498" width="120" height="60" as="geometry"/>
                </mxCell>
                <mxCell id="61" value="" style="group" vertex="1" connectable="0" parent="1">
                    <mxGeometry x="156" y="-382" width="192" height="198" as="geometry"/>
                </mxCell>
                <mxCell id="28" value="用户注册" style="whiteSpace=wrap;html=1;rounded=0;" vertex="1" parent="61">
                    <mxGeometry x="72" width="120" height="60" as="geometry"/>
                </mxCell>
                <mxCell id="30" value="用户登录" style="whiteSpace=wrap;html=1;rounded=0;" vertex="1" parent="61">
                    <mxGeometry x="72" y="69" width="120" height="60" as="geometry"/>
                </mxCell>
                <mxCell id="34" value="找回密码" style="whiteSpace=wrap;html=1;rounded=0;" vertex="1" parent="61">
                    <mxGeometry x="72" y="138" width="120" height="60" as="geometry"/>
                </mxCell>
                <mxCell id="58" style="edgeStyle=none;html=1;exitX=1;exitY=0;exitDx=0;exitDy=0;exitPerimeter=0;entryX=0;entryY=0.5;entryDx=0;entryDy=0;strokeColor=#000000;" edge="1" parent="61" source="55" target="28">
                    <mxGeometry relative="1" as="geometry"/>
                </mxCell>
                <mxCell id="59" style="edgeStyle=none;html=1;exitX=1;exitY=1;exitDx=0;exitDy=0;exitPerimeter=0;entryX=0;entryY=0.5;entryDx=0;entryDy=0;strokeColor=#000000;" edge="1" parent="61" source="55" target="34">
                    <mxGeometry relative="1" as="geometry"/>
                </mxCell>
                <mxCell id="55" value="" style="strokeWidth=1;html=1;shape=mxgraph.flowchart.annotation_1;align=left;pointerEvents=1;strokeColor=#000000;" vertex="1" parent="61">
                    <mxGeometry y="29" width="50" height="140" as="geometry"/>
                </mxCell>
                <mxCell id="60" style="edgeStyle=none;html=1;exitX=1;exitY=0.5;exitDx=0;exitDy=0;entryX=0;entryY=0.5;entryDx=0;entryDy=0;strokeColor=#000000;" edge="1" parent="1" source="21" target="30">
                    <mxGeometry relative="1" as="geometry"/>
                </mxCell>
                <mxCell id="63" value="题库管理" style="rounded=0;whiteSpace=wrap;html=1;" vertex="1" parent="1">
                    <mxGeometry y="-93" width="120" height="60" as="geometry"/>
                </mxCell>
                <mxCell id="64" value="" style="group" vertex="1" connectable="0" parent="1">
                    <mxGeometry x="156" y="-162" width="192" height="198" as="geometry"/>
                </mxCell>
                <mxCell id="65" value="题目创建" style="whiteSpace=wrap;html=1;rounded=0;" vertex="1" parent="64">
                    <mxGeometry x="72" width="120" height="60" as="geometry"/>
                </mxCell>
                <mxCell id="66" value="题目删除" style="whiteSpace=wrap;html=1;rounded=0;" vertex="1" parent="64">
                    <mxGeometry x="72" y="69" width="120" height="60" as="geometry"/>
                </mxCell>
                <mxCell id="67" value="题型管理" style="whiteSpace=wrap;html=1;rounded=0;" vertex="1" parent="64">
                    <mxGeometry x="72" y="138" width="120" height="60" as="geometry"/>
                </mxCell>
                <mxCell id="68" style="edgeStyle=none;html=1;exitX=1;exitY=0;exitDx=0;exitDy=0;exitPerimeter=0;entryX=0;entryY=0.5;entryDx=0;entryDy=0;strokeColor=#000000;" edge="1" parent="64" source="70" target="65">
                    <mxGeometry relative="1" as="geometry"/>
                </mxCell>
                <mxCell id="69" style="edgeStyle=none;html=1;exitX=1;exitY=1;exitDx=0;exitDy=0;exitPerimeter=0;entryX=0;entryY=0.5;entryDx=0;entryDy=0;strokeColor=#000000;" edge="1" parent="64" source="70" target="67">
                    <mxGeometry relative="1" as="geometry"/>
                </mxCell>
                <mxCell id="70" value="" style="strokeWidth=1;html=1;shape=mxgraph.flowchart.annotation_1;align=left;pointerEvents=1;strokeColor=#000000;" vertex="1" parent="64">
                    <mxGeometry y="29" width="50" height="140" as="geometry"/>
                </mxCell>
                <mxCell id="71" style="edgeStyle=none;html=1;exitX=1;exitY=0.5;exitDx=0;exitDy=0;entryX=0;entryY=0.5;entryDx=0;entryDy=0;strokeColor=#000000;" edge="1" parent="1" source="63" target="66">
                    <mxGeometry relative="1" as="geometry"/>
                </mxCell>
                <mxCell id="88" value="" style="group" vertex="1" connectable="0" parent="1">
                    <mxGeometry y="243" width="572" height="214" as="geometry"/>
                </mxCell>
                <mxCell id="41" value="立即发布" style="whiteSpace=wrap;html=1;rounded=0;" vertex="1" parent="88">
                    <mxGeometry x="452" y="20" width="120" height="60" as="geometry"/>
                </mxCell>
                <mxCell id="43" value="预发布" style="whiteSpace=wrap;html=1;rounded=0;" vertex="1" parent="88">
                    <mxGeometry x="452" y="118" width="120" height="60" as="geometry"/>
                </mxCell>
                <mxCell id="74" value="试卷管理" style="rounded=0;whiteSpace=wrap;html=1;" vertex="1" parent="88">
                    <mxGeometry y="69" width="120" height="60" as="geometry"/>
                </mxCell>
                <mxCell id="75" value="" style="group" vertex="1" connectable="0" parent="88">
                    <mxGeometry x="156" width="192" height="198" as="geometry"/>
                </mxCell>
                <mxCell id="76" value="试卷创建" style="whiteSpace=wrap;html=1;rounded=0;" vertex="1" parent="75">
                    <mxGeometry x="72" width="120" height="60" as="geometry"/>
                </mxCell>
                <mxCell id="77" value="试卷发布" style="whiteSpace=wrap;html=1;rounded=0;" vertex="1" parent="75">
                    <mxGeometry x="72" y="69" width="120" height="60" as="geometry"/>
                </mxCell>
                <mxCell id="78" value="试卷删除" style="whiteSpace=wrap;html=1;rounded=0;" vertex="1" parent="75">
                    <mxGeometry x="72" y="138" width="120" height="60" as="geometry"/>
                </mxCell>
                <mxCell id="79" style="edgeStyle=none;html=1;exitX=1;exitY=0;exitDx=0;exitDy=0;exitPerimeter=0;entryX=0;entryY=0.5;entryDx=0;entryDy=0;strokeColor=#000000;" edge="1" parent="75" source="81" target="76">
                    <mxGeometry relative="1" as="geometry"/>
                </mxCell>
                <mxCell id="80" style="edgeStyle=none;html=1;exitX=1;exitY=1;exitDx=0;exitDy=0;exitPerimeter=0;entryX=0;entryY=0.5;entryDx=0;entryDy=0;strokeColor=#000000;" edge="1" parent="75" source="81" target="78">
                    <mxGeometry relative="1" as="geometry"/>
                </mxCell>
                <mxCell id="81" value="" style="strokeWidth=1;html=1;shape=mxgraph.flowchart.annotation_1;align=left;pointerEvents=1;strokeColor=#000000;" vertex="1" parent="75">
                    <mxGeometry y="29" width="50" height="140" as="geometry"/>
                </mxCell>
                <mxCell id="82" style="edgeStyle=none;html=1;exitX=1;exitY=0.5;exitDx=0;exitDy=0;entryX=0;entryY=0.5;entryDx=0;entryDy=0;strokeColor=#000000;" edge="1" parent="88" source="74" target="77">
                    <mxGeometry relative="1" as="geometry"/>
                </mxCell>
                <mxCell id="86" style="edgeStyle=none;html=1;exitX=1;exitY=1;exitDx=0;exitDy=0;exitPerimeter=0;entryX=0;entryY=0.5;entryDx=0;entryDy=0;strokeColor=#000000;" edge="1" parent="88" source="83" target="43">
                    <mxGeometry relative="1" as="geometry"/>
                </mxCell>
                <mxCell id="87" style="edgeStyle=none;html=1;exitX=1;exitY=0;exitDx=0;exitDy=0;exitPerimeter=0;entryX=0;entryY=0.5;entryDx=0;entryDy=0;strokeColor=#000000;" edge="1" parent="88" source="83" target="41">
                    <mxGeometry relative="1" as="geometry"/>
                </mxCell>
                <mxCell id="83" value="" style="strokeWidth=1;html=1;shape=mxgraph.flowchart.annotation_1;align=left;pointerEvents=1;strokeColor=#000000;" vertex="1" parent="88">
                    <mxGeometry x="390" y="49" width="50" height="100" as="geometry"/>
                </mxCell>
                <mxCell id="84" style="edgeStyle=none;html=1;exitX=1;exitY=0.5;exitDx=0;exitDy=0;entryX=0;entryY=0.5;entryDx=0;entryDy=0;entryPerimeter=0;strokeColor=#000000;" edge="1" parent="88" source="77" target="83">
                    <mxGeometry relative="1" as="geometry"/>
                </mxCell>
                <mxCell id="124" value="数据统计模块" style="rounded=0;whiteSpace=wrap;html=1;" vertex="1" parent="1">
                    <mxGeometry y="661" width="120" height="60" as="geometry"/>
                </mxCell>
                <mxCell id="125" value="" style="group" vertex="1" connectable="0" parent="1">
                    <mxGeometry x="156" y="592" width="192" height="198" as="geometry"/>
                </mxCell>
                <mxCell id="126" value="成绩统计" style="whiteSpace=wrap;html=1;rounded=0;" vertex="1" parent="125">
                    <mxGeometry x="72" width="120" height="60" as="geometry"/>
                </mxCell>
                <mxCell id="127" value="班级统计" style="whiteSpace=wrap;html=1;rounded=0;" vertex="1" parent="125">
                    <mxGeometry x="72" y="68" width="120" height="61" as="geometry"/>
                </mxCell>
                <mxCell id="128" value="试卷统计" style="whiteSpace=wrap;html=1;rounded=0;" vertex="1" parent="125">
                    <mxGeometry x="72" y="138" width="120" height="60" as="geometry"/>
                </mxCell>
                <mxCell id="129" style="edgeStyle=none;html=1;exitX=1;exitY=0;exitDx=0;exitDy=0;exitPerimeter=0;entryX=0;entryY=0.5;entryDx=0;entryDy=0;strokeColor=#000000;" edge="1" parent="125" source="131" target="126">
                    <mxGeometry relative="1" as="geometry"/>
                </mxCell>
                <mxCell id="130" style="edgeStyle=none;html=1;exitX=1;exitY=1;exitDx=0;exitDy=0;exitPerimeter=0;entryX=0;entryY=0.5;entryDx=0;entryDy=0;strokeColor=#000000;" edge="1" parent="125" source="131" target="128">
                    <mxGeometry relative="1" as="geometry"/>
                </mxCell>
                <mxCell id="131" value="" style="strokeWidth=1;html=1;shape=mxgraph.flowchart.annotation_1;align=left;pointerEvents=1;strokeColor=#000000;" vertex="1" parent="125">
                    <mxGeometry y="29" width="50" height="140" as="geometry"/>
                </mxCell>
                <mxCell id="132" style="edgeStyle=none;html=1;exitX=1;exitY=0.5;exitDx=0;exitDy=0;entryX=0;entryY=0.5;entryDx=0;entryDy=0;strokeColor=#000000;" edge="1" parent="1" source="124" target="127">
                    <mxGeometry relative="1" as="geometry"/>
                </mxCell>
                <mxCell id="23" value="班级管理模块" style="rounded=0;whiteSpace=wrap;html=1;" vertex="1" parent="1">
                    <mxGeometry y="104" width="120" height="60" as="geometry"/>
                </mxCell>
                <mxCell id="111" value="" style="group" vertex="1" connectable="0" parent="1">
                    <mxGeometry x="177" y="59" width="176" height="150" as="geometry"/>
                </mxCell>
                <mxCell id="44" value="班级创建" style="whiteSpace=wrap;html=1;rounded=0;" vertex="1" parent="111">
                    <mxGeometry x="51" width="120" height="60" as="geometry"/>
                </mxCell>
                <mxCell id="45" value="班级解散" style="whiteSpace=wrap;html=1;rounded=0;" vertex="1" parent="111">
                    <mxGeometry x="51" y="90" width="125" height="60" as="geometry"/>
                </mxCell>
                <mxCell id="109" style="edgeStyle=none;html=1;exitX=1;exitY=0;exitDx=0;exitDy=0;exitPerimeter=0;entryX=0;entryY=0.5;entryDx=0;entryDy=0;strokeColor=#000000;" edge="1" parent="111" source="105" target="44">
                    <mxGeometry relative="1" as="geometry"/>
                </mxCell>
                <mxCell id="110" style="edgeStyle=none;html=1;exitX=1;exitY=1;exitDx=0;exitDy=0;exitPerimeter=0;entryX=0;entryY=0.5;entryDx=0;entryDy=0;strokeColor=#000000;" edge="1" parent="111" source="105" target="45">
                    <mxGeometry relative="1" as="geometry"/>
                </mxCell>
                <mxCell id="105" value="" style="strokeWidth=1;html=1;shape=mxgraph.flowchart.annotation_1;align=left;pointerEvents=1;strokeColor=#000000;" vertex="1" parent="111">
                    <mxGeometry y="30" width="30" height="90" as="geometry"/>
                </mxCell>
                <mxCell id="106" value="" style="edgeStyle=none;html=1;strokeColor=#000000;" edge="1" parent="1" source="23" target="105">
                    <mxGeometry relative="1" as="geometry"/>
                </mxCell>
                <mxCell id="115" value="在线监控" style="rounded=0;whiteSpace=wrap;html=1;" vertex="1" parent="1">
                    <mxGeometry y="855" width="120" height="60" as="geometry"/>
                </mxCell>
                <mxCell id="116" value="" style="group" vertex="1" connectable="0" parent="1">
                    <mxGeometry x="177" y="812" width="176" height="150" as="geometry"/>
                </mxCell>
                <mxCell id="117" value="学生视频录制上传" style="whiteSpace=wrap;html=1;rounded=0;" vertex="1" parent="116">
                    <mxGeometry x="51" width="120" height="60" as="geometry"/>
                </mxCell>
                <mxCell id="118" value="教师视频拉取" style="whiteSpace=wrap;html=1;rounded=0;" vertex="1" parent="116">
                    <mxGeometry x="51" y="90" width="125" height="60" as="geometry"/>
                </mxCell>
                <mxCell id="119" style="edgeStyle=none;html=1;exitX=1;exitY=0;exitDx=0;exitDy=0;exitPerimeter=0;entryX=0;entryY=0.5;entryDx=0;entryDy=0;strokeColor=#000000;" edge="1" parent="116" source="121" target="117">
                    <mxGeometry relative="1" as="geometry"/>
                </mxCell>
                <mxCell id="120" style="edgeStyle=none;html=1;exitX=1;exitY=1;exitDx=0;exitDy=0;exitPerimeter=0;entryX=0;entryY=0.5;entryDx=0;entryDy=0;strokeColor=#000000;" edge="1" parent="116" source="121" target="118">
                    <mxGeometry relative="1" as="geometry"/>
                </mxCell>
                <mxCell id="121" value="" style="strokeWidth=1;html=1;shape=mxgraph.flowchart.annotation_1;align=left;pointerEvents=1;strokeColor=#000000;" vertex="1" parent="116">
                    <mxGeometry y="30" width="30" height="90" as="geometry"/>
                </mxCell>
                <mxCell id="122" value="" style="edgeStyle=none;html=1;strokeColor=#000000;" edge="1" parent="1" source="115" target="121">
                    <mxGeometry relative="1" as="geometry"/>
                </mxCell>
                <mxCell id="136" style="edgeStyle=none;html=1;exitX=1;exitY=0;exitDx=0;exitDy=0;exitPerimeter=0;entryX=0;entryY=0.5;entryDx=0;entryDy=0;strokeColor=#000000;" edge="1" parent="1" source="135" target="21">
                    <mxGeometry relative="1" as="geometry"/>
                </mxCell>
                <mxCell id="142" style="edgeStyle=none;html=1;exitX=1;exitY=1;exitDx=0;exitDy=0;exitPerimeter=0;entryX=0;entryY=0.5;entryDx=0;entryDy=0;strokeColor=#000000;" edge="1" parent="1" source="135" target="115">
                    <mxGeometry relative="1" as="geometry"/>
                </mxCell>
                <mxCell id="135" value="" style="strokeWidth=1;html=1;shape=mxgraph.flowchart.annotation_1;align=left;pointerEvents=1;strokeColor=#000000;" vertex="1" parent="1">
                    <mxGeometry x="-98" y="-284" width="50" height="1168" as="geometry"/>
                </mxCell>
                <mxCell id="138" value="" style="endArrow=classic;html=1;strokeColor=#000000;entryX=0;entryY=0.5;entryDx=0;entryDy=0;exitX=0.027;exitY=0.189;exitDx=0;exitDy=0;exitPerimeter=0;" edge="1" parent="1" source="135" target="63">
                    <mxGeometry width="50" height="50" relative="1" as="geometry">
                        <mxPoint x="-19" y="-23" as="sourcePoint"/>
                        <mxPoint x="507" y="385" as="targetPoint"/>
                    </mxGeometry>
                </mxCell>
                <mxCell id="139" value="" style="endArrow=classic;html=1;strokeColor=#000000;entryX=0;entryY=0.5;entryDx=0;entryDy=0;exitX=0.027;exitY=0.189;exitDx=0;exitDy=0;exitPerimeter=0;" edge="1" parent="1">
                    <mxGeometry width="50" height="50" relative="1" as="geometry">
                        <mxPoint x="-96.99999999999986" y="133.52199999999996" as="sourcePoint"/>
                        <mxPoint x="-0.34999999999999964" y="133.77" as="targetPoint"/>
                    </mxGeometry>
                </mxCell>
                <mxCell id="140" value="" style="endArrow=classic;html=1;strokeColor=#000000;entryX=0;entryY=0.5;entryDx=0;entryDy=0;exitX=0.027;exitY=0.189;exitDx=0;exitDy=0;exitPerimeter=0;" edge="1" parent="1">
                    <mxGeometry width="50" height="50" relative="1" as="geometry">
                        <mxPoint x="-96.99999999999986" y="527.5219999999999" as="sourcePoint"/>
                        <mxPoint x="-0.3500000000000014" y="527.77" as="targetPoint"/>
                    </mxGeometry>
                </mxCell>
                <mxCell id="141" value="" style="endArrow=classic;html=1;strokeColor=#000000;entryX=0;entryY=0.5;entryDx=0;entryDy=0;exitX=0.027;exitY=0.189;exitDx=0;exitDy=0;exitPerimeter=0;" edge="1" parent="1">
                    <mxGeometry width="50" height="50" relative="1" as="geometry">
                        <mxPoint x="-96.99999999999977" y="690.5219999999999" as="sourcePoint"/>
                        <mxPoint x="-0.34999999999990905" y="690.77" as="targetPoint"/>
                    </mxGeometry>
                </mxCell>
            </root>
        </mxGraphModel>
    </diagram>
</mxfile>